<?xml version="1.0" encoding="utf-8"?>
<!-- Generator: Adobe Illustrator 24.3.0, SVG Export Plug-In . SVG Version: 6.00 Build 0)  -->
<svg version="1.1" id="Layer_1" xmlns="http://www.w3.org/2000/svg" xmlns:xlink="http://www.w3.org/1999/xlink" x="0px" y="0px"
	 viewBox="35.5 27.5 29.1 29.9" style="enable-background:new 0 0 100.51 84.58;" xml:space="preserve">
<style type="text/css">
	.st0{fill:#221F1F;}
</style>
<g>
	<path class="st0" d="M50.04,27.74c-8.01,0-14.53,6.52-14.53,14.53c0,3.28,1.12,6.46,3.16,9.02l0.1,6.26l5.67-1.89
		c1.79,0.75,3.66,1.13,5.59,1.13c8.01,0,14.53-6.52,14.53-14.53C64.56,34.25,58.05,27.74,50.04,27.74z M50.04,52.79
		c-1.6,0-3.15-0.36-4.6-1.07l-0.74-0.36l-2.02,0.67l-0.04-2.25l-0.49-0.55c-1.71-1.93-2.65-4.4-2.65-6.96
		c0-5.8,4.72-10.53,10.53-10.53c5.8,0,10.53,4.72,10.53,10.53C60.56,48.07,55.84,52.79,50.04,52.79z"/>
	<rect x="42.42" y="40.48" class="st0" width="3.56" height="3.56"/>
	<rect x="48.26" y="40.48" class="st0" width="3.56" height="3.56"/>
	<rect x="54.1" y="40.48" class="st0" width="3.56" height="3.56"/>
</g>
</svg>
