<svg width="44" height="44" viewBox="0 0 44 44" fill="none" xmlns="http://www.w3.org/2000/svg">
<g clip-path="url(#clip0_20_329)">
<path d="M37.5646 6.43673C34.4864 3.35832 30.5644 1.26215 26.2946 0.412685C22.0247 -0.436777 17.5988 -0.0012552 13.5766 1.66457C9.55441 3.3304 6.11658 6.15163 3.69784 9.77124C1.2791 13.3908 -0.0118408 17.6463 -0.0118408 21.9996C-0.0118408 26.3529 1.2791 30.6083 3.69784 34.2279C6.11658 37.8476 9.55441 40.6688 13.5766 42.3346C17.5988 44.0004 22.0247 44.436 26.2946 43.5865C30.5644 42.737 34.4864 40.6409 37.5646 37.5625C41.6865 33.4319 44.0014 27.8348 44.0014 21.9996C44.0014 16.1644 41.6865 10.5673 37.5646 6.43673ZM7.64113 36.3657C4.79807 33.5241 2.86171 29.9031 2.07681 25.9609C1.29191 22.0187 1.69387 17.9325 3.23174 14.2187C4.76961 10.5049 7.37424 7.33054 10.7164 5.0972C14.0586 2.86386 17.9882 1.67174 22.008 1.67174C26.0277 1.67174 29.9572 2.86386 33.2994 5.0972C36.6415 7.33054 39.2463 10.5049 40.7842 14.2187C42.3221 17.9325 42.7239 22.0187 41.939 25.9609C41.1541 29.9031 39.2177 33.5241 36.3747 36.3657C32.5614 40.1702 27.3947 42.3071 22.008 42.3071C16.6212 42.3071 11.4544 40.1702 7.64113 36.3657Z" fill="#231F20"/>
<path d="M11.9834 23.5772L18.5836 30.177L31.8653 16.8937" stroke="#191717" stroke-width="1.75" stroke-miterlimit="10"/>
</g>
<defs>
<clipPath id="clip0_20_329">
<rect width="44" height="44" fill="white"/>
</clipPath>
</defs>
</svg>
