<?xml version="1.0" encoding="utf-8"?>
<!-- Generator: Adobe Illustrator 25.3.1, SVG Export Plug-In . SVG Version: 6.00 Build 0)  -->
<svg version="1.1" id="Layer_1" xmlns="http://www.w3.org/2000/svg" xmlns:xlink="http://www.w3.org/1999/xlink" x="0px" y="0px"
	 viewBox="0 0 26.8 21.2" style="enable-background:new 0 0 26.8 21.2;" xml:space="preserve">
<style type="text/css">
	.st0{fill:#231F20;}
</style>
<path class="st0" d="M19.8,6.5L17.3,0l-0.4,0.4C14,3.3,11.5,3.5,8.8,3.8C6.1,4.1,3.3,4.4,0.3,7.5L0,7.8l9.6,9.5l0,0l3.9,3.9l0.5-0.5
	l-3.9-3.9c2.8-2.6,5.2-2.9,7.8-3.2c2.7-0.3,5.5-0.6,8.5-3.6l0.4-0.4L19.8,6.5z M17.8,12.8c-2.6,0.3-5.3,0.6-8.3,3.4L1.1,7.8
	c2.8-2.6,5.2-2.9,7.8-3.2C11.4,4.3,14.1,4,17,1.3l2.2,5.8l6.3,2.7C22.8,12.3,20.4,12.5,17.8,12.8z"/>
</svg>
