<svg id="Chat" xmlns="http://www.w3.org/2000/svg" width="20.751" height="20.75" viewBox="0 0 20.751 20.75">
  <g id="Group_288" data-name="Group 288" transform="translate(-184.563 -2384.761)">
    <g id="Path_1264" data-name="Path 1264" transform="translate(187.12 2384.761) rotate(8)" fill="none">
      <path d="M9.186,0A9.176,9.176,0,0,0,2.307,15.26l.051,3.112,2.808-.936A9.182,9.182,0,1,0,9.186,0Z" stroke="none"/>
      <path d="M 9.186002731323242 0.7500038146972656 C 4.53437328338623 0.7500038146972656 0.7500038146972656 4.534394264221191 0.7500038146972656 9.186034202575684 C 0.7500038146972656 11.23572444915771 1.502573013305664 13.2164945602417 2.869072914123535 14.7634744644165 L 3.052332878112793 14.97093486785889 L 3.091134071350098 17.33706855773926 L 5.219682693481445 16.62756538391113 L 5.495162963867188 16.76213455200195 C 6.663223266601562 17.33270454406738 7.905002593994141 17.62200546264648 9.186002731323242 17.62200546264648 C 13.83817291259766 17.62200546264648 17.62298202514648 13.83764457702637 17.62298202514648 9.186034202575684 C 17.62298202514648 4.534394264221191 13.83817291259766 0.7500038146972656 9.186002731323242 0.7500038146972656 M 9.186002731323242 3.814697265625e-06 C 14.25998306274414 3.814697265625e-06 18.37298202514648 4.111994743347168 18.37298202514648 9.186034202575684 C 18.37298202514648 14.2600040435791 14.25998306274414 18.37200546264648 9.186002731323242 18.37200546264648 C 7.742002487182617 18.37200546264648 6.381993293762207 18.03002548217773 5.165983200073242 17.43603515625 L 2.358003616333008 18.37200546264648 L 2.306972503662109 15.2600040435791 C 0.8759727478027344 13.6400146484375 3.814697265625e-06 11.51800441741943 3.814697265625e-06 9.186034202575684 C 3.814697265625e-06 4.111994743347168 4.112973213195801 3.814697265625e-06 9.186002731323242 3.814697265625e-06 Z" stroke="none" fill="#221f1f"/>
    </g>
  </g>
</svg>
