<?xml version="1.0" encoding="utf-8"?>
<!-- Generator: Adobe Illustrator 25.2.3, SVG Export Plug-In . SVG Version: 6.00 Build 0)  -->
<svg version="1.1" id="Layer_1" xmlns="http://www.w3.org/2000/svg" xmlns:xlink="http://www.w3.org/1999/xlink" x="0px" y="0px"
	 viewBox="0 0 19.2 19.3" style="enable-background:new 0 0 19.2 19.3;" xml:space="preserve">
<style type="text/css">
	.st0{fill:#231F20;}
</style>
<path class="st0" d="M19.2,4.4c-0.3-2.2-2.1-4-4.4-4.3l-0.2,0L1,13.7l-0.1,0.1L0,19.3l5.5-0.9L19.2,4.6L19.2,4.4z M2,13.7l10-10
	c1.8,0.3,3.2,1.7,3.5,3.5l-10,10C5.1,15.5,3.7,14.2,2,13.7z M1.6,14.4c1.6,0.4,2.9,1.6,3.3,3.3l-4,0.7L1.6,14.4z M16.2,6.6
	c-0.5-1.7-1.8-3.1-3.5-3.5l2.3-2.3c1.8,0.3,3.2,1.7,3.5,3.5L16.2,6.6z M18.8,4.5L18.8,4.5L18.8,4.5L18.8,4.5z"/>
</svg>
