<svg id="Phone_Number" data-name="Phone Number" xmlns="http://www.w3.org/2000/svg" width="17.402" height="17.4" viewBox="0 0 17.402 17.4">
  <path id="Path_793" data-name="Path 793" d="M376.428,872.271h-.155a14.63,14.63,0,0,1-14.615-14.614V857.5l2.632-2.631.222.078a5.568,5.568,0,0,1,2.092,1.51,5.319,5.319,0,0,1,1.224,2.419l.031.19-1.759,1.758a7.166,7.166,0,0,0,7,7l1.762-1.762.2.037a5.392,5.392,0,0,1,2.41,1.221h0a5.583,5.583,0,0,1,1.51,2.092l.079.224Zm-14.019-14.459a13.88,13.88,0,0,0,13.71,13.709l2.063-2.064a5.217,5.217,0,0,0-1.209-1.571h0a4.694,4.694,0,0,0-1.864-1l-1.7,1.7h-.156a7.917,7.917,0,0,1-7.907-7.908v-.155l1.7-1.7a4.73,4.73,0,0,0-1-1.864,5.17,5.17,0,0,0-1.572-1.209Z" transform="translate(-361.658 -854.871)" fill="#231f20"/>
</svg>
