<?xml version="1.0" standalone="no"?>
<svg version="1.0" xmlns="http://www.w3.org/2000/svg"
 width="394.000000pt" height="370.000000pt" viewBox="0 0 394.000000 370.000000"
 preserveAspectRatio="xMidYMid meet">

<g transform="translate(0.000000,370.000000) scale(0.100000,-0.100000)"
fill="#000000" stroke="none">
  <path d="M1550 1995 c0 -326 1 -336 24 -399 56 -155 187 -262 351 -287 220
  -35 432 107 490 326 12 47 15 124 15 377 l0 318 -440 0 -440 0 0 -335z m450
  -60 c-201 -201 -368 -365 -372 -365 -4 0 -15 24 -24 53 -14 42 -18 106 -22
  350 -2 163 -1 304 2 312 5 13 60 15 393 15 l388 0 -365 -365z m388 -50 l-3
  -240 -32 -67 c-126 -268 -469 -318 -667 -98 l-38 43 368 368 369 369 3 -67 c2
  -38 2 -176 0 -308z"/>
</g>
</svg>

