<svg xmlns="http://www.w3.org/2000/svg" width="27.768" height="26.713" viewBox="0 0 27.768 26.713"><path d="M1776.837,781.681c0,3.247,2.246,3.376,2.246,10.1l.007.342-.327-.106c-6.387-2.092-5.81-4.267-8.895-5.278a2.989,2.989,0,0,0-1.861,5.681c3.086,1.01,3.907-1.085,10.294,1.007l.328.106-.2.276c-3.96,5.43-5.851,4.211-7.764,6.834a2.988,2.988,0,1,0,4.829,3.522c1.913-2.623.174-4.051,4.134-9.481l.2-.281.2.279h0c3.944,5.441,2.2,6.864,4.106,9.493a2.988,2.988,0,0,0,4.84-3.507c-1.905-2.63-3.8-1.416-7.744-6.857l-.2-.276.327-.107c6.393-2.073,7.209.024,10.3-.978a2.989,2.989,0,0,0-1.844-5.686c-3.088,1-2.518,3.179-8.911,5.252l-.328.109,0-.344c0-6.72,2.246-6.849,2.246-10.1a2.988,2.988,0,0,0-5.977,0Z" transform="translate(-1765.948 -778.693)"/></svg>