<?xml version="1.0" encoding="utf-8"?>
<!-- Generator: Adobe Illustrator 25.2.3, SVG Export Plug-In . SVG Version: 6.00 Build 0)  -->
<svg version="1.1" id="Layer_1" xmlns="http://www.w3.org/2000/svg" xmlns:xlink="http://www.w3.org/1999/xlink" x="0px" y="0px"
	 viewBox="0 0 19.1 19.2" style="enable-background:new 0 0 19.1 19.2;" xml:space="preserve">
<style type="text/css">
	.st0{fill:#231F20;}
</style>
<path class="st0" d="M14.2,7.7c0.4-0.8,0.6-1.6,0.6-2.4c0-2.9-2.3-5.2-5.2-5.2C6.7,0,4.3,2.4,4.3,5.2c0,0.8,0.2,1.7,0.6,2.4
	C1.9,9.4,0,12.5,0,16v3.1h19.1V16C19.1,12.5,17.2,9.4,14.2,7.7z M9.6,0.8c2.5,0,4.5,2,4.5,4.5c0,0.8-0.2,1.7-0.7,2.4
	c-0.8,1.3-2.2,2.1-3.8,2.1C8,9.7,6.6,8.9,5.8,7.6C5.3,6.9,5.1,6.1,5.1,5.2C5.1,2.8,7.1,0.8,9.6,0.8z M18.4,18.4H0.7V16
	c0-3.3,1.8-6.2,4.6-7.7c1,1.3,2.5,2.2,4.2,2.2c1.7,0,3.2-0.8,4.2-2.2c2.9,1.5,4.6,4.5,4.6,7.7V18.4z"/>
</svg>
