<svg xmlns="http://www.w3.org/2000/svg" width="21.408" height="16.661" viewBox="0 0 21.408 16.661">
  <defs>
    <clipPath id="clip-path">
      <rect width="21.408" height="16.661" fill="none"/>
    </clipPath>
  </defs>
  <g id="Repeat_Grid_2">
    <g transform="translate(-769.38 -955.318)">
      <path id="Path_813" d="M137.575,896.882l-4.244,2.365a1.028,1.028,0,0,1-1.51-1.093l.917-4.786-3.54-3.291a1.028,1.028,0,0,1,.569-1.773l4.819-.622,2.059-4.373a1.028,1.028,0,0,1,1.861,0l2.058,4.373,4.819.622a1.028,1.028,0,0,1,.569,1.773l-3.54,3.291.918,4.786a1.029,1.029,0,0,1-1.511,1.093Z" transform="translate(640.511 72.6)" fill="#fff" stroke="#191717" />
    </g>
  </g>
</svg>

